<svg width="21" height="19" viewBox="0 0 21 19" fill="none" xmlns="http://www.w3.org/2000/svg">
<path d="M9.6264 0.539741C9.98375 -0.179913 11.0163 -0.179914 11.3736 0.53974L13.7091 5.24303C13.851 5.5288 14.1253 5.72688 14.4426 5.7727L19.6648 6.52691C20.4639 6.64231 20.7829 7.61829 20.2047 8.17846L16.4259 11.8395C16.1963 12.0619 16.0915 12.3824 16.1457 12.6965L17.0378 17.8659C17.1743 18.6569 16.339 19.2601 15.6243 18.8866L10.9533 16.446C10.6695 16.2977 10.3305 16.2977 10.0467 16.446L5.37575 18.8866C4.66104 19.2601 3.82573 18.6569 3.96223 17.8659L4.85429 12.6965C4.90849 12.3824 4.80372 12.0619 4.57411 11.8395L0.795263 8.17847C0.217057 7.61829 0.536117 6.64231 1.33518 6.52691L6.55742 5.7727C6.87473 5.72688 7.14903 5.5288 7.29094 5.24303L9.6264 0.539741Z" fill="#BEC1C4"/>
<path d="M9.85031 0.650928C10.1158 0.116357 10.8842 0.116358 11.1497 0.650926L13.4851 5.35421C13.6638 5.71398 14.0087 5.96264 14.4068 6.02014L19.6291 6.77434C20.2248 6.86038 20.4583 7.58476 20.0308 7.99891L16.2519 11.6599C15.9632 11.9397 15.831 12.3432 15.8993 12.739L16.7914 17.9084C16.8921 18.4919 16.2744 18.9443 15.74 18.6651L11.0691 16.2244C10.7128 16.0382 10.2872 16.0382 9.93089 16.2244L5.25997 18.6651C4.72564 18.9443 4.10789 18.4919 4.20858 17.9084L5.10065 12.739C5.16896 12.3432 5.03682 11.9397 4.74807 11.6599L0.969217 7.99891C0.541731 7.58476 0.775212 6.86038 1.37091 6.77434L6.59316 6.02014C6.9913 5.96264 7.3362 5.71399 7.51485 5.35421L9.85031 0.650928Z" stroke="#87898C" stroke-opacity="0.5" stroke-width="0.5"/>
</svg>
