<svg width="19" height="19" viewBox="0 0 19 19" fill="none" xmlns="http://www.w3.org/2000/svg">
<path fill-rule="evenodd" clip-rule="evenodd" d="M6.1839 17.5527L1.88096 18.2698C1.20414 18.3826 0.617362 17.7959 0.730166 17.1191L1.44732 12.8161C1.48159 12.6105 1.57923 12.4208 1.72661 12.2734L12.7929 1.20711C13.1834 0.816584 13.8166 0.816584 14.2071 1.20711L17.7929 4.7929C18.1834 5.18342 18.1834 5.81658 17.7929 6.20711L6.72661 17.2734C6.57923 17.4208 6.38949 17.5184 6.1839 17.5527ZM3.91084 16.4108L2.58917 15.0892L2.90057 13.2208L3.70711 12.4142L6.58579 15.2929L5.77925 16.0994L3.91084 16.4108ZM7.2929 14.5858L14.0858 7.7929L11.2071 4.91422L4.41422 11.7071L7.2929 14.5858ZM11.9142 4.20711L14.7929 7.08579L16.3787 5.5L13.5 2.62132L11.9142 4.20711Z" fill="#34A34F"/>
</svg>
